<?xml version="1.0" encoding="UTF-8"?><svg xmlns="http://www.w3.org/2000/svg" width="145" height="445" viewBox="0 0 145 445"><defs><style>.cls-1,.cls-2{fill:#881722;}.cls-3{fill:#c0d1d2;}.cls-4{fill:#c0a46d;}.cls-5{fill:#641219;}.cls-6{fill:#798585;}.cls-2{mix-blend-mode:overlay;}.cls-7{isolation:isolate;}</style></defs><g class="cls-7"><g id="Layer_2"><path class="cls-1" d="m21.71,434.32c-.52-89.05-1.04-178.11-1.56-267.16,1.46-16.92,6.87-23.36,12.5-27.6,1.61-1.21,4.91-5.07,7.81-8.25,4.09-4.49,5.6-9.16,5.93-11.7,6.9-53.06,5-88.36,5-88.36-.05-1.71-.1-2.23-.13-3.02-.84-.31-1.68-1.46-2.52-1.77-.92-2.51-.35-7.25.7-9.77,1.53-1.09,2.37-.1,3.19-1.67-.08-2.82-.15-5.64-.23-8.47,10.9-2.67,21.81-2.33,32.72-.46-.08,1.75-.15,3.51-.23,5.26.61,1.86,1.82,3.32,4.35,3.89,1.71,3.71,2.47,7.41.4,11.11-.74.61-1.47,1.23-2.21,1.84-.09,1.37-.18,2.74-.26,4.12-1.79,30.66,1.17,84.75,2.83,89.06s4.56,8.57,9.52,13.39c1.76,1.7,3.04,2.67,3.86,3.35,0,0,7.98,6.57,12.1,22.14,3.27,12.36,5.56,123.26,4.12,274.91-30.99,4.9-62.78,7.29-97.91-.83Z"/><path class="cls-4" d="m87.42,90.32c-.83-18.59-1.23-41.64-.28-58.01.08-1.38.17-2.75.26-4.12.74-.61,1.47-1.23,2.21-1.84,2.06-3.7,1.31-7.4-.4-11.11-2.52-.57-3.73-2.03-4.35-3.89.08-1.75.15-3.51.23-5.26-10.91-1.88-21.82-2.21-32.72.46.08,2.82.15,5.64.23,8.47-.82,1.57-1.66.58-3.19,1.67-1.05,2.52-1.62,7.26-.7,9.77.84.31,1.68,1.46,2.52,1.77.03.79.07,1.31.13,3.02,0,0,1.22,22.72-1.86,59.08h37.92Z"/><path class="cls-5" d="m94.98,212.64c-3.64-5.78-8.29-10.41-12.93-14.94-9.96-9.73-20.09-19.23-29.51-29.76-7.48-8.37-14.02-17.49-19.42-28.03-.17.15-.34.3-.48.4-5.63,4.24-11.04,10.68-12.5,27.6.52,89.05,1.04,178.1,1.56,267.16,35.13,8.12,66.92,5.73,97.91.83.57-59.4.56-112.55.14-155.98-4.82-15.69-10.23-31.14-15.67-46.47-2.57-7.25-5.19-14.58-9.11-20.81Z"/><path class="cls-3" d="m20.88,337.82c20.74.77,76.87,1.44,76.88.69.97-.01-.48-126.57-1.45-126.55l-76.16-.55c.25,42.14.49,84.28.74,126.42Z"/><path class="cls-6" d="m20.88,337.82c6.35.24,16.03.46,26.4.64v-126.86l-27.14-.2c.25,42.14.49,84.27.74,126.41Z"/><path class="cls-2" d="m78.1,9.09c-.69,1.55-.17,4.65.6,6.12s1.74,1.08,2.73,2.51c2.04,2.94-.15,5.99-.4,6.32-.89,1.19-2.43,1.42-2.8,3.34-.46,1.95.97,56.24,1.2,58.48s.8,2.67,2.44,2.94c1.77.29,2.78-.7,3.01-2.2-.65-19.63-3.38-56.56-1.06-58.9s3.86-2.25,4.39-5.69c.08-.54.47-3.55-1.95-5.69-1.05-.93-1.63-.82-2.19-1.65-1.3-1.93-.93-2.84-1.15-4.95-.22-2.11-4.12-2.18-4.81-.63Z"/><path class="cls-2" d="m84.96,136c-5.79-3.96-5.05-12.52-4.95-13.6.13-1.5.44-5.11,2.19-5.62,1.65-.48,4.12,1.91,5.24,4.33,1.48,3.2-.15,4.89,1.49,7.17,1.49,2.07,3.41,1.47,4.43,3.52.85,1.72.56,4.26-.84,5.43-2.03,1.7-5.77,0-7.56-1.22Z"/><path class="cls-2" d="m93.8,150.62c-1.26-4.11-1.74-6.74-1.18-8.29.32-.89,1.62-4.08,3.89-4.36,1.18-.15,2.25.55,4.08,2.4,5.58,5.65,8.13,11.85,8.36,12.44,1.39,3.47,2.09,6.43,2.33,7.64,6.54,32.02,3.11,134.21,3.11,134.21-.62,18.38-.61,31.87-.58,58.7.02,29.65.54,53.95.97,70.05-1,8.89-11.67,7.92-13.61-.22,3.08-117.49,3.75-203.19,3.11-218.22-.25-5.98.69-8.91.68-20.19-.02-11.64-2.31-18.16-4.6-22.62-2.82-5.49-2.89-5.38-6.57-11.53Z"/><path class="cls-2" d="m85.4,112.09c-.07,1.72-.46,1.83-1.17,2.36-1.2.56-2.72.49-3.45-1.67-.04-6.37-.09-12.74-.13-19.12.21-1.1.96-1.93,1.8-2.05,1.15-.17,2.58,1.02,2.57,2.82.13,5.65.26,12.01.38,17.65"/></g></g></svg>